<svg fill="#005091" xmlns="http://www.w3.org/2000/svg" viewBox="0 0 100 100" width="30" height="30" class="a-icon a-icon--default">
    <path d="M87.251 5.041h-74.5a7.715 7.715 0 0 0-7.707 7.707v74.5a7.715 7.715 0 0 0 7.707 7.707h74.5a7.715 7.715 0 0 0 7.707-7.707v-74.5a7.715 7.715 0 0 0-7.707-7.707zm2.569 82.211a2.572 2.572 0 0 1-2.569 2.569h-74.5a2.572 2.572 0 0 1-2.569-2.569v-74.5a2.573 2.573 0 0 1 2.569-2.569h74.5a2.573 2.573 0 0 1 2.569 2.569zm-15.093-50.1a2.569 2.569 0 0 1-2.569 2.569H27.842a2.569 2.569 0 0 1 0-5.138h44.316a2.569 2.569 0 0 1 2.569 2.571zm0 12.845a2.569 2.569 0 0 1-2.569 2.569H27.842a2.569 2.569 0 0 1 0-5.138h44.316A2.569 2.569 0 0 1 74.727 50zm0 12.847a2.568 2.568 0 0 1-2.569 2.569H27.842a2.569 2.569 0 1 1 0-5.138h44.316a2.568 2.568 0 0 1 2.569 2.571z" />
</svg>
